<svg width="200" height="40" viewBox="0 0 200 40" fill="none" xmlns="http://www.w3.org/2000/svg">
<path d="M10.752 31.608C8.64 31.608 6.85867 31.2773 5.408 30.616C3.95733 29.9333 2.85867 29.016 2.112 27.864C1.36533 26.6907 0.992 25.3467 0.992 23.832H6.08C6.08 24.4293 6.24 24.984 6.56 25.496C6.90133 26.008 7.41333 26.424 8.096 26.744C8.77867 27.0427 9.664 27.192 10.752 27.192C11.7333 27.192 12.5547 27.064 13.216 26.808C13.8773 26.552 14.3787 26.2 14.72 25.752C15.0613 25.2827 15.232 24.7493 15.232 24.152C15.232 23.4053 14.912 22.8187 14.272 22.392C13.632 21.944 12.5973 21.656 11.168 21.528L9.408 21.368C7.08267 21.176 5.22667 20.4507 3.84 19.192C2.45333 17.9333 1.76 16.2693 1.76 14.2C1.76 12.7067 2.112 11.416 2.816 10.328C3.54133 9.24 4.544 8.408 5.824 7.832C7.104 7.23467 8.61867 6.936 10.368 6.936C12.2027 6.936 13.7707 7.256 15.072 7.896C16.3947 8.51467 17.408 9.4 18.112 10.552C18.816 11.6827 19.168 13.016 19.168 14.552H14.048C14.048 13.976 13.9093 13.4533 13.632 12.984C13.3547 12.4933 12.9387 12.0987 12.384 11.8C11.8507 11.5013 11.1787 11.352 10.368 11.352C9.6 11.352 8.94933 11.48 8.416 11.736C7.904 11.992 7.52 12.344 7.264 12.792C7.008 13.2187 6.88 13.688 6.88 14.2C6.88 14.8613 7.11467 15.4373 7.584 15.928C8.05333 16.4187 8.82133 16.7067 9.888 16.792L11.68 16.952C13.3867 17.1013 14.8907 17.4747 16.192 18.072C17.4933 18.648 18.5067 19.448 19.232 20.472C19.9787 21.4747 20.352 22.7013 20.352 24.152C20.352 25.6453 19.9573 26.9573 19.168 28.088C18.4 29.1973 17.3013 30.0613 15.872 30.68C14.4427 31.2987 12.736 31.608 10.752 31.608ZM33.7598 31.608C31.5624 31.608 29.6958 31.2027 28.1598 30.392C26.6451 29.56 25.4931 28.3867 24.7038 26.872C23.9144 25.3573 23.5198 23.5653 23.5198 21.496V7.64H28.7678V21.688C28.7678 22.712 28.9598 23.608 29.3438 24.376C29.7491 25.1227 30.3144 25.6987 31.0398 26.104C31.7864 26.5093 32.6931 26.712 33.7598 26.712C34.8478 26.712 35.7544 26.5093 36.4798 26.104C37.2264 25.6987 37.7918 25.1227 38.1758 24.376C38.5598 23.6293 38.7518 22.7333 38.7518 21.688V7.64H43.9998V21.496C43.9998 23.5653 43.6051 25.3573 42.8158 26.872C42.0264 28.3867 40.8744 29.56 39.3598 30.392C37.8451 31.2027 35.9784 31.608 33.7598 31.608ZM53.4195 24.312V19.768H57.6115C58.4222 19.768 59.1155 19.608 59.6915 19.288C60.2888 18.968 60.7475 18.52 61.0675 17.944C61.3875 17.3467 61.5475 16.664 61.5475 15.896C61.5475 15.0853 61.3875 14.392 61.0675 13.816C60.7475 13.2187 60.2888 12.7707 59.6915 12.472C59.1155 12.152 58.4222 11.992 57.6115 11.992H53.4195V7.448H57.3555C59.3395 7.448 61.0355 7.77866 62.4435 8.44C63.8728 9.10133 64.9608 10.04 65.7075 11.256C66.4755 12.472 66.8595 13.9333 66.8595 15.64V16.152C66.8595 17.816 66.4755 19.2667 65.7075 20.504C64.9608 21.72 63.8728 22.6587 62.4435 23.32C61.0355 23.9813 59.3395 24.312 57.3555 24.312H53.4195ZM48.8115 31V7.448H54.0595V31H48.8115Z" fill="url(#paint0_linear_708_1680)"/>
<path d="M89.824 31.608C87.712 31.608 85.8667 31.2453 84.288 30.52C82.7307 29.7733 81.44 28.8027 80.416 27.608C79.392 26.392 78.624 25.08 78.112 23.672C77.6213 22.264 77.376 20.9093 77.376 19.608V18.904C77.376 17.4533 77.632 16.024 78.144 14.616C78.6773 13.1867 79.4667 11.896 80.512 10.744C81.5573 9.592 82.8587 8.67467 84.416 7.992C85.9733 7.288 87.776 6.936 89.824 6.936C91.872 6.936 93.6747 7.288 95.232 7.992C96.7893 8.67467 98.0907 9.592 99.136 10.744C100.181 11.896 100.971 13.1867 101.504 14.616C102.037 16.024 102.304 17.4533 102.304 18.904V19.608C102.304 20.9093 102.048 22.264 101.536 23.672C101.024 25.08 100.256 26.392 99.232 27.608C98.208 28.8027 96.9067 29.7733 95.328 30.52C93.7707 31.2453 91.936 31.608 89.824 31.608ZM89.824 26.712C90.9333 26.712 91.9253 26.52 92.8 26.136C93.696 25.752 94.4533 25.2187 95.072 24.536C95.712 23.8533 96.192 23.064 96.512 22.168C96.832 21.272 96.992 20.312 96.992 19.288C96.992 18.2 96.8213 17.208 96.48 16.312C96.16 15.3947 95.68 14.6053 95.04 13.944C94.4213 13.2613 93.6747 12.7387 92.8 12.376C91.9253 12.0133 90.9333 11.832 89.824 11.832C88.7147 11.832 87.7227 12.0133 86.848 12.376C85.9733 12.7387 85.216 13.2613 84.576 13.944C83.9573 14.6053 83.488 15.3947 83.168 16.312C82.848 17.208 82.688 18.2 82.688 19.288C82.688 20.312 82.848 21.272 83.168 22.168C83.488 23.064 83.9573 23.8533 84.576 24.536C85.216 25.2187 85.9733 25.752 86.848 26.136C87.7227 26.52 88.7147 26.712 89.824 26.712ZM106.28 31V7.64H113.512L118.856 20.76H119.464L124.744 7.64H132.104V31H126.92V11.064L127.656 11.128L121.48 26.264H116.488L110.28 11.128L111.08 11.064V31H106.28ZM145.471 31.608C143.359 31.608 141.577 31.2773 140.127 30.616C138.676 29.9333 137.577 29.016 136.831 27.864C136.084 26.6907 135.711 25.3467 135.711 23.832H140.799C140.799 24.4293 140.959 24.984 141.279 25.496C141.62 26.008 142.132 26.424 142.815 26.744C143.497 27.0427 144.383 27.192 145.471 27.192C146.452 27.192 147.273 27.064 147.935 26.808C148.596 26.552 149.097 26.2 149.439 25.752C149.78 25.2827 149.951 24.7493 149.951 24.152C149.951 23.4053 149.631 22.8187 148.991 22.392C148.351 21.944 147.316 21.656 145.887 21.528L144.127 21.368C141.801 21.176 139.945 20.4507 138.559 19.192C137.172 17.9333 136.479 16.2693 136.479 14.2C136.479 12.7067 136.831 11.416 137.535 10.328C138.26 9.24 139.263 8.408 140.543 7.832C141.823 7.23467 143.337 6.936 145.087 6.936C146.921 6.936 148.489 7.256 149.791 7.896C151.113 8.51467 152.127 9.4 152.831 10.552C153.535 11.6827 153.887 13.016 153.887 14.552H148.767C148.767 13.976 148.628 13.4533 148.351 12.984C148.073 12.4933 147.657 12.0987 147.103 11.8C146.569 11.5013 145.897 11.352 145.087 11.352C144.319 11.352 143.668 11.48 143.135 11.736C142.623 11.992 142.239 12.344 141.983 12.792C141.727 13.2187 141.599 13.688 141.599 14.2C141.599 14.8613 141.833 15.4373 142.303 15.928C142.772 16.4187 143.54 16.7067 144.607 16.792L146.399 16.952C148.105 17.1013 149.609 17.4747 150.911 18.072C152.212 18.648 153.225 19.448 153.951 20.472C154.697 21.4747 155.071 22.7013 155.071 24.152C155.071 25.6453 154.676 26.9573 153.887 28.088C153.119 29.1973 152.02 30.0613 150.591 30.68C149.161 31.2987 147.455 31.608 145.471 31.608ZM162.67 31V11.576H167.918V31H162.67ZM156.11 12.216V7.64H174.51V12.216H156.11ZM187.541 31.608C185.344 31.608 183.477 31.2027 181.941 30.392C180.426 29.56 179.274 28.3867 178.485 26.872C177.696 25.3573 177.301 23.5653 177.301 21.496V7.64H182.549V21.688C182.549 22.712 182.741 23.608 183.125 24.376C183.53 25.1227 184.096 25.6987 184.821 26.104C185.568 26.5093 186.474 26.712 187.541 26.712C188.629 26.712 189.536 26.5093 190.261 26.104C191.008 25.6987 191.573 25.1227 191.957 24.376C192.341 23.6293 192.533 22.7333 192.533 21.688V7.64H197.781V21.496C197.781 23.5653 197.386 25.3573 196.597 26.872C195.808 28.3867 194.656 29.56 193.141 30.392C191.626 31.2027 189.76 31.608 187.541 31.608Z" fill="#140C1D"/>
<defs>
<linearGradient id="paint0_linear_708_1680" x1="-3.4471e-07" y1="20.2597" x2="68" y2="20.2597" gradientUnits="userSpaceOnUse">
<stop stop-color="#330867"/>
<stop offset="1" stop-color="#30CFD0"/>
</linearGradient>
</defs>
</svg>
